<?xml version="1.0" encoding="utf-8"?>
<!-- Generator: Adobe Illustrator 26.2.1, SVG Export Plug-In . SVG Version: 6.00 Build 0)  -->
<svg version="1.1" id="Camada_1" xmlns="http://www.w3.org/2000/svg" xmlns:xlink="http://www.w3.org/1999/xlink" x="0px" y="0px"
	 viewBox="0 0 300 239.7" style="enable-background:new 0 0 300 239.7;" xml:space="preserve">
<style type="text/css">
	.st0{fill:#C25FFF;}
</style>
<g>
	<path class="st0" d="M6.7,60c-0.4-1.2,0,2,1.5,4.5c23.5,39.6,46.3,79.7,70.9,118.6c34.1,54,102.7,70.5,157.9,39.5
		c55.4-31.1,77.1-99.1,49.6-155.3c-27.9-57-92.6-82-152.3-58.5C92,25.5,49.9,42.6,6.7,60z"/>
	<path class="st0" d="M1.8,162.4c-0.9-0.8,1.1,1.7,3.7,3c41,21,81.6,42.7,123.2,62.6c57.6,27.5,124.5,5,154.7-50.7
		c30.3-55.9,12.5-124.9-40.8-157.8c-54-33.4-122.1-20.1-160,31.6C55.6,87.7,29.1,124.7,1.8,162.4z"/>
</g>
</svg>
